<svg version="1.1" xmlns="http://www.w3.org/2000/svg" viewBox="0 0 141.90468705710646 141.90468705710646" width="141.90468705710646" height="141.90468705710646">
  <!-- svg-source:excalidraw -->
  
  <defs>
    <style class="style-fonts">
      @font-face {
        font-family: "Virgil";
        src: url("https://excalidraw.com/Virgil.woff2");
      }
      @font-face {
        font-family: "Cascadia";
        src: url("https://excalidraw.com/Cascadia.woff2");
      }
    </style>
  </defs>
  <rect x="0" y="0" width="141.90468705710646" height="141.90468705710646" fill="#ffffff"></rect><g stroke-linecap="round" transform="translate(10 10) rotate(0 60.95234352855323 60.95234352855323)"><path d="M15.72 20.29 C15.72 20.29, 15.72 20.29, 15.72 20.29 M15.72 20.29 C15.72 20.29, 15.72 20.29, 15.72 20.29 M7.8 37.18 C16.56 27.35, 22.65 21.77, 24.28 14.02 M7.75 35.21 C17.36 25.84, 23.07 17.99, 28.67 11.8 M0.63 46.97 C11.15 33.14, 27.2 21.17, 41.57 6.92 M5.72 45.44 C14.21 34.41, 26.52 21.82, 39.67 3.19 M2.78 49.61 C16.37 42.51, 28.27 23.47, 41.79 5.86 M1.29 52.74 C13.55 41.05, 25.16 29.34, 46.54 5.46 M5.12 56.94 C19.82 33.97, 40.75 17.48, 52.86 2.55 M2.88 59.66 C19.69 39.5, 37.67 19.74, 50.53 2.89 M0.22 66.91 C18.69 54.74, 28.83 33.57, 53.15 5.47 M3.88 66.96 C15.36 50.55, 26.57 35.25, 55.68 4.62 M3.97 75.89 C22.23 56.22, 42.08 30.11, 59.71 0.7 M2.83 72.45 C18.7 54.77, 37.1 37.72, 61.57 1.9 M1.86 78.35 C31.83 47.3, 53.05 22.06, 65.16 0.53 M2.22 79.01 C26.16 50.33, 53.36 22.96, 66.8 3.16 M8.73 82.51 C34.53 55.56, 58.21 27.14, 76.02 -0.41 M6.89 80.78 C31.96 50.99, 56.8 19.96, 71.9 2.53 M10.28 89.15 C22.08 68.44, 41.99 44.16, 79.65 1.73 M6.01 86.31 C25.96 64.58, 39.48 45.7, 76.8 5.25 M12.03 85.25 C24.48 70.45, 36.61 56.15, 80.53 9.37 M8.64 90.74 C26.95 67.15, 47.22 45.37, 81.67 5.36 M7 94.68 C29.74 70.5, 46.9 46.84, 83.94 10.66 M12.02 94.81 C38.69 60.2, 67.49 25.76, 85.2 7.35 M9.3 97.98 C29.54 74.86, 52.93 49.8, 87.5 5.09 M13.62 95.18 C34.25 73.85, 59.36 47.78, 88.69 8.19 M13.74 99.03 C37.16 67.92, 61.15 43.56, 89.58 13.86 M15.4 99.48 C33.18 75.68, 55.09 49.41, 94.96 10.18 M17.48 105.45 C36.92 77.62, 54.45 53.69, 96.78 9.5 M20 101.16 C31.97 85.62, 51.52 67.35, 96.49 10.92 M19.06 107.95 C53.45 68.91, 86.88 35.62, 96.41 10.81 M22.29 103.3 C46.36 76.17, 68.56 47.59, 98.41 12.76 M21.19 110.68 C39.56 89.97, 60.33 69.35, 102.53 20.85 M22.81 107.37 C52.72 76.77, 78.88 47.42, 101.12 17.23 M29.84 110.64 C58.71 72.07, 90.73 37.79, 104.47 17.94 M27.31 109.08 C47.75 89.02, 66.98 67.89, 103.32 22.42 M33.86 112.32 C59.83 83.42, 93.23 51.33, 111.01 24.98 M33.03 111.47 C53.33 90.17, 71.45 66.08, 106.82 24.78 M35.16 114.75 C55.59 94.12, 72.71 71.47, 108.67 25.08 M35.42 112.39 C61.46 82.49, 87.33 53.83, 109.4 25.2 M41.17 113.98 C55.79 95.58, 77.97 68.95, 116.74 28.96 M39.1 117.41 C53.14 96.41, 72.26 77.96, 112.33 28.8 M40.3 120.6 C70.05 82.41, 92.24 54.84, 116.83 34.79 M41.95 117.81 C62.24 92.53, 85.97 71.04, 116.51 35.23 M49.68 114.94 C78.09 89.87, 103.97 59.43, 116.52 38.82 M45.41 116.17 C62.32 101.89, 78.79 86.29, 118.74 37.78 M54.76 117.17 C78.31 89.81, 100.78 64.7, 119.7 43.54 M50.61 120.96 C79.02 87.9, 102.24 61.5, 120.53 41.9 M58.22 115.94 C74.91 95.86, 96.56 80.67, 120.07 49.02 M57.85 117.53 C75.04 98.67, 88.17 82.74, 122.26 45.03 M60.33 122.7 C82.64 96.7, 105.12 67.74, 124.24 48.77 M59.54 119.01 C83.87 97.96, 103.8 73.05, 120.75 50.9 M69.84 122.14 C84.16 101.15, 110.21 69.82, 123.24 59.92 M65.64 119.05 C81.16 104.04, 95.81 83.17, 121.4 56.1 M70.3 116.29 C90.34 104.35, 104.92 83.64, 120.29 65.81 M70.56 120.4 C84.55 105.94, 97.19 92.99, 120.47 63.18 M81.06 121.64 C89.34 101.09, 99.78 87.46, 120.91 75.13 M80.67 118.51 C93.53 103.42, 106.75 88.08, 119.82 72.12 M87.54 112.78 C95.56 103.32, 103.54 94.9, 121.31 79.74 M85.2 117.59 C91.31 108.75, 100.6 99.86, 117.78 80.73 M89.47 111.75 C100.49 109.21, 103.37 102.4, 113.37 92.39 M90.99 114.33 C96.7 105.34, 105.15 97.88, 114.77 86.69" stroke="#fab005" stroke-width="0.5" fill="none"></path><path d="M43.02 2.7 C51.41 -0.83, 61.27 -1.22, 70.39 0.2 C79.51 1.63, 90.24 5.55, 97.74 11.22 C105.25 16.9, 111.52 25.66, 115.43 34.23 C119.33 42.81, 121.31 53.45, 121.18 62.66 C121.05 71.87, 119.3 80.9, 114.63 89.5 C109.96 98.1, 101.42 109.2, 93.17 114.26 C84.91 119.31, 74.61 119.7, 65.11 119.85 C55.62 120, 44.77 118.64, 36.2 115.16 C27.63 111.68, 19.66 105.97, 13.71 98.96 C7.76 91.95, 2.23 82.09, 0.51 73.12 C-1.22 64.14, 0.8 53.95, 3.36 45.11 C5.93 36.27, 2.24 26.75, 15.89 20.1 C29.54 13.44, 68.43 1.91, 85.27 5.2 C102.1 8.48, 116.9 38.93, 116.88 39.82" stroke="#000000" stroke-width="1.5" fill="none" stroke-dasharray="1.5 7"></path></g><g transform="translate(36.58292054635592 60.6525280903013) rotate(0 34.26960754394531 10.200000000000045)"><text x="34.26960754394531" y="0" font-family="Virgil, Segoe UI Emoji" font-size="17.02399999999999px" fill="#000000" text-anchor="middle" style="white-space: pre;" direction="ltr" dominant-baseline="text-before-edge">mess.cpp</text></g></svg>